TITLE ""
FILE "Step1_Track26.mp3" MP3
  TRACK 01 AUDIO
    TITLE "Step1_Track26_01"
    INDEX 01 00:00:00
  TRACK 02 AUDIO
    TITLE "Step1_Track26_02"
    INDEX 01 00:00:22
  TRACK 03 AUDIO
    TITLE "Step1_Track26_03"
    INDEX 01 00:02:07
  TRACK 04 AUDIO
    TITLE "Step1_Track26_04"
    INDEX 01 00:02:62
  TRACK 05 AUDIO
    TITLE "Step1_Track26_05"
    INDEX 01 00:03:62
  TRACK 06 AUDIO
    TITLE "Step1_Track26_06"
    INDEX 01 00:03:63
  TRACK 07 AUDIO
    TITLE "Step1_Track26_07"
    INDEX 01 00:05:62
  TRACK 08 AUDIO
    TITLE "Step1_Track26_08"
    INDEX 01 00:06:07
  TRACK 09 AUDIO
    TITLE "Step1_Track26_09"
    INDEX 01 00:07:03
  TRACK 10 AUDIO
    TITLE "Step1_Track26_10"
    INDEX 01 00:07:04
  TRACK 11 AUDIO
    TITLE "Step1_Track26_11"
    INDEX 01 00:09:09
  TRACK 12 AUDIO
    TITLE "Step1_Track26_12"
    INDEX 01 00:09:25
  TRACK 13 AUDIO
    TITLE "Step1_Track26_13"
    INDEX 01 00:10:17
  TRACK 14 AUDIO
    TITLE "Step1_Track26_14"
    INDEX 01 00:10:24
  TRACK 15 AUDIO
    TITLE "Step1_Track26_15"
    INDEX 01 00:12:17
  TRACK 16 AUDIO
    TITLE "Step1_Track26_16"
    INDEX 01 00:12:41
  TRACK 17 AUDIO
    TITLE "Step1_Track26_17"
    INDEX 01 00:13:33
  TRACK 18 AUDIO
    TITLE "Step1_Track26_18"
    INDEX 01 00:13:34
  TRACK 19 AUDIO
    TITLE "Step1_Track26_19"
    INDEX 01 00:15:27
  TRACK 20 AUDIO
    TITLE "Step1_Track26_20"
    INDEX 01 00:15:57
  TRACK 21 AUDIO
    TITLE "Step1_Track26_21"
    INDEX 01 00:16:50
  TRACK 22 AUDIO
    TITLE "Step1_Track26_22"
    INDEX 01 00:16:62
  TRACK 23 AUDIO
    TITLE "Step1_Track26_23"
    INDEX 01 00:18:59
  TRACK 24 AUDIO
    TITLE "Step1_Track26_24"
    INDEX 01 00:18:67
  TRACK 25 AUDIO
    TITLE "Step1_Track26_25"
    INDEX 01 00:19:70
  TRACK 26 AUDIO
    TITLE "Step1_Track26_26"
    INDEX 01 00:19:72
  TRACK 27 AUDIO
    TITLE "Step1_Track26_27"
    INDEX 01 00:22:02
  TRACK 28 AUDIO
    TITLE "Step1_Track26_28"
    INDEX 01 00:22:10
  TRACK 29 AUDIO
    TITLE "Step1_Track26_29"
    INDEX 01 00:23:17
  TRACK 30 AUDIO
    TITLE "Step1_Track26_30"
    INDEX 01 00:23:27
  TRACK 31 AUDIO
    TITLE "Step1_Track26_31"
    INDEX 01 00:25:24
  TRACK 32 AUDIO
    TITLE "Step1_Track26_32"
    INDEX 01 00:25:32
  TRACK 33 AUDIO
    TITLE "Step1_Track26_33"
    INDEX 01 00:26:21
  TRACK 34 AUDIO
    TITLE "Step1_Track26_34"
    INDEX 01 00:26:35
  TRACK 35 AUDIO
    TITLE "Step1_Track26_35"
    INDEX 01 00:28:63
  TRACK 36 AUDIO
    TITLE "Step1_Track26_36"
    INDEX 01 00:28:71
  TRACK 37 AUDIO
    TITLE "Step1_Track26_37"
    INDEX 01 00:29:73
  TRACK 38 AUDIO
    TITLE "Step1_Track26_38"
    INDEX 01 00:30:02
  TRACK 39 AUDIO
    TITLE "Step1_Track26_39"
    INDEX 01 00:32:28
  TRACK 40 AUDIO
    TITLE "Step1_Track26_40"
    INDEX 01 00:32:40
  TRACK 41 AUDIO
    TITLE "Step1_Track26_41"
    INDEX 01 00:33:37
  TRACK 42 AUDIO
    TITLE "Step1_Track26_42"
    INDEX 01 00:33:51
  TRACK 43 AUDIO
    TITLE "Step1_Track26_43"
    INDEX 01 00:36:28
